<?xml version="1.0" standalone="no"?>
<!DOCTYPE svg PUBLIC "-//W3C//DTD SVG 20010904//EN"
 "http://www.w3.org/TR/2001/REC-SVG-20010904/DTD/svg10.dtd">
<svg version="1.0" xmlns="http://www.w3.org/2000/svg"
 width="1122.000000pt" height="1122.000000pt" viewBox="0 0 1122.000000 1122.000000"
 preserveAspectRatio="xMidYMid meet">
<metadata>
Created by potrace 1.11, written by Peter Selinger 2001-2013
</metadata>
<g transform="translate(0.000000,1122.000000) scale(0.100000,-0.100000)"
fill="#000000" stroke="none">
<path d="M5633 10140 c-13 -5 -23 -7 -23 -4 0 3 -13 -4 -30 -16 -64 -46 -237
-78 -293 -55 -12 5 -33 0 -59 -14 -43 -23 -73 -27 -83 -11 -4 6 -10 8 -14 5
-5 -2 -37 -7 -72 -9 -87 -7 -87 -7 -60 -15 14 -4 26 -13 29 -21 3 -13 2 -13
-7 0 -8 12 -13 12 -35 1 -15 -9 -41 -12 -65 -8 -22 3 -42 2 -46 -1 -12 -12
-82 -32 -115 -32 -19 0 -44 -7 -54 -15 -11 -8 -33 -15 -49 -15 -20 0 -30 -6
-34 -19 -7 -26 -84 -60 -133 -59 -14 0 -46 -8 -70 -19 -25 -11 -71 -30 -102
-43 -32 -12 -58 -26 -58 -31 0 -5 -6 -9 -12 -9 -7 0 -53 -39 -103 -86 -49 -47
-102 -92 -117 -100 -16 -8 -28 -23 -28 -33 0 -10 -26 -40 -59 -67 -33 -27 -60
-54 -60 -61 -1 -6 -9 -14 -19 -17 -18 -6 -134 -127 -222 -231 -23 -27 -75 -82
-115 -122 -88 -85 -130 -145 -122 -173 3 -13 -1 -24 -13 -30 -10 -6 -19 -18
-19 -28 0 -68 -33 -245 -56 -297 -50 -110 -58 -187 -58 -560 -1 -385 -2 -376
79 -627 l37 -118 -18 -40 c-22 -48 -22 -74 -4 -290 15 -185 16 -217 5 -415 -7
-118 -5 -150 9 -200 23 -83 45 -194 45 -230 0 -24 5 -31 21 -32 11 -1 23 5 26
13 9 23 33 16 33 -10 0 -14 5 -28 12 -32 7 -4 8 -3 4 4 -4 7 -2 12 3 12 14 0
14 -13 -1 -28 -9 -9 -9 -12 3 -12 12 0 14 -8 11 -30 -5 -36 0 -37 41 -6 18 14
44 29 60 35 33 13 52 50 43 85 -5 22 -10 25 -36 19 -25 -5 -30 -2 -30 15 0 11
-10 26 -22 34 -24 16 -31 79 -11 99 16 16 51 -6 59 -36 3 -14 11 -25 16 -25 6
0 7 25 2 68 -9 82 -9 426 0 467 8 36 24 189 31 295 8 117 6 112 36 78 l20 -23
-11 25 c-11 22 -9 22 13 -5 14 -16 23 -34 20 -39 -3 -4 -10 -2 -15 5 -7 10 -8
2 -4 -24 4 -34 3 -36 -15 -27 -26 14 -24 2 4 -21 12 -10 17 -18 10 -19 -8 0
-11 -13 -9 -40 2 -25 -1 -40 -8 -40 -7 0 -10 -16 -7 -46 2 -25 -1 -50 -7 -56
-12 -12 -3 -50 10 -42 5 3 6 14 3 25 -4 13 -2 19 8 19 8 0 18 -11 21 -25 6
-22 9 -23 26 -13 15 10 17 14 6 20 -11 6 -12 16 -4 49 9 32 15 40 29 36 22 -6
22 -10 9 73 -16 103 -21 121 -31 115 -5 -4 -7 0 -5 7 2 7 10 35 16 61 13 50
24 54 27 9 8 -137 15 -184 27 -171 2 2 6 42 10 89 6 84 19 119 32 87 3 -9 12
-17 19 -17 8 0 17 -9 20 -21 4 -11 20 -25 36 -31 27 -9 28 -11 14 -31 -23 -33
-18 -41 10 -13 14 14 25 30 25 36 0 5 4 10 8 10 4 0 7 -17 7 -37 -1 -47 5 -69
15 -53 5 8 11 6 20 -5 11 -13 10 -15 -1 -10 -8 2 -19 1 -25 -3 -15 -9 -30 -57
-16 -48 15 9 42 -4 42 -21 0 -12 -3 -13 -13 -4 -22 17 -17 -16 4 -35 23 -21
49 -11 49 17 0 17 5 20 25 16 14 -2 24 -2 21 0 -3 3 13 22 35 42 21 21 36 41
33 44 -4 3 9 2 29 -4 43 -12 92 4 83 26 -4 11 2 15 19 15 13 0 26 4 29 9 8 13
67 16 131 6 61 -9 114 -11 109 -4 -2 4 19 6 46 4 28 -1 50 1 50 6 0 8 8 7 48
-7 57 -21 120 -18 182 6 28 11 60 20 71 20 27 0 18 30 -24 85 -49 64 -100 104
-142 114 -37 7 -229 6 -342 -3 -113 -9 -162 -4 -133 14 12 7 12 12 2 22 -6 6
-12 19 -12 27 0 8 -7 23 -16 33 -16 16 -15 18 2 24 11 4 28 18 40 31 28 33
106 40 256 23 96 -10 167 -27 133 -31 -5 0 15 -6 45 -13 30 -7 68 -16 84 -21
25 -7 28 -6 23 9 -12 30 62 5 108 -38 14 -13 42 -27 61 -31 20 -3 33 -9 30
-12 -8 -8 43 -95 67 -114 26 -21 33 -100 19 -193 -12 -75 -17 -85 -33 -69 -8
8 -6 18 5 36 16 24 13 57 -5 57 -5 0 -9 7 -9 15 0 8 -5 15 -10 15 -6 0 -9 -3
-8 -7 1 -5 -5 -20 -12 -36 -14 -29 -5 -52 10 -27 12 19 12 13 1 -27 -7 -26 -6
-33 7 -39 10 -4 20 -7 24 -6 4 1 0 -20 -7 -46 -21 -67 -19 -82 8 -82 12 0 28
-4 36 -9 10 -7 8 -12 -10 -25 -13 -9 -29 -16 -36 -16 -7 0 -13 -3 -13 -8 0 -4
-12 -22 -27 -39 -92 -104 -123 -143 -116 -143 21 0 71 41 103 83 37 49 62 65
34 22 -13 -20 -14 -25 -2 -25 7 0 21 12 30 28 11 16 18 21 18 12 0 -9 -5 -21
-12 -28 -9 -9 -9 -15 0 -24 9 -9 12 -9 12 2 1 9 7 4 15 -10 15 -26 19 -9 6 25
-5 11 -4 32 1 48 10 28 24 35 30 15 5 -14 66 40 70 62 2 8 9 21 16 28 6 7 12
22 12 33 0 11 12 43 26 71 26 51 30 82 33 226 1 82 27 112 95 112 42 0 46 -3
70 -42 14 -24 22 -44 17 -46 -11 -4 -5 -56 16 -131 8 -29 16 -59 18 -65 4 -19
25 -70 37 -91 6 -11 17 -31 24 -45 7 -14 38 -44 69 -68 31 -24 74 -68 96 -99
23 -30 43 -52 46 -49 3 3 -11 28 -31 56 -20 27 -36 57 -36 65 0 8 -6 15 -14
15 -7 0 -25 9 -40 21 -30 24 -36 45 -7 30 14 -8 22 -7 31 4 10 11 8 25 -5 62
-32 92 -44 159 -42 243 2 73 6 92 32 138 29 54 73 96 132 126 53 27 189 54
326 65 118 10 567 13 505 4 -16 -2 -28 -7 -28 -9 0 -3 13 -19 29 -36 27 -29
29 -36 24 -82 -11 -100 -22 -109 -98 -81 -59 21 -72 19 -49 -6 24 -26 11 -47
-41 -65 -57 -20 -58 -19 -52 30 4 25 2 58 -4 74 l-10 30 -125 7 c-134 8 -272
-8 -281 -32 -3 -7 -9 -10 -15 -7 -9 6 -48 -28 -48 -42 0 -4 -11 -22 -25 -40
-37 -48 -33 -71 14 -84 21 -5 42 -17 45 -26 3 -8 10 -13 15 -9 5 3 12 1 16 -5
4 -6 11 -8 16 -5 18 12 49 14 49 4 0 -6 7 -3 16 5 17 18 28 21 19 6 -3 -5 -2
-10 4 -10 5 0 12 4 16 10 3 6 15 6 29 0 13 -5 26 -6 29 -4 3 3 79 7 168 10 90
2 174 6 186 9 15 4 26 -1 33 -15 6 -11 15 -18 21 -15 5 4 7 11 4 16 -7 10 16
4 53 -14 17 -8 28 -8 42 1 16 9 21 9 28 -4 13 -23 82 -9 82 17 0 11 9 27 20
36 11 10 20 25 20 34 0 13 7 16 26 14 15 -1 28 3 31 11 7 19 23 18 23 -1 0
-13 4 -14 21 -5 15 8 24 8 34 0 10 -8 15 -8 20 0 5 8 14 6 31 -4 34 -23 51
-20 62 12 l10 27 1 -36 c1 -19 7 -44 15 -54 12 -17 16 -17 31 -5 9 7 22 27 30
44 7 17 14 25 14 18 1 -16 20 -36 41 -45 10 -3 7 -6 -7 -6 -18 -1 -23 -7 -23
-26 0 -16 6 -25 15 -25 8 0 15 -5 15 -11 0 -5 -4 -7 -10 -4 -5 3 -10 2 -10 -4
0 -17 14 -19 48 -5 17 8 32 20 32 27 0 8 -3 7 -10 -3 -5 -8 -12 -11 -16 -7 -5
4 7 21 24 37 30 27 47 29 20 2 -9 -9 -9 -12 0 -12 24 0 34 -39 18 -71 -8 -16
-11 -27 -6 -24 5 3 12 0 16 -6 10 -16 11 -130 1 -136 -4 -3 -3 -11 4 -19 6 -8
14 -31 16 -52 2 -20 13 -73 24 -117 11 -44 21 -118 22 -165 2 -75 4 -86 23
-95 12 -6 29 -17 38 -25 15 -12 23 -7 67 38 32 33 49 59 49 76 0 13 4 26 10
28 12 4 15 111 6 203 -7 69 -25 105 -53 105 -16 0 -17 17 0 23 7 3 4 6 -6 6
-16 1 -18 9 -15 75 2 41 6 72 10 70 4 -2 9 0 12 5 4 5 2 12 -4 16 -5 3 -10 10
-10 15 0 15 69 80 75 70 3 -6 3 -10 -1 -10 -3 0 0 -7 7 -17 11 -12 11 -17 2
-20 -9 -3 -9 -10 2 -27 8 -12 17 -36 19 -52 2 -16 7 -45 10 -64 8 -36 12 -139
15 -296 1 -69 4 -91 15 -91 25 0 50 165 47 314 -2 61 2 76 19 93 11 11 18 25
15 30 -4 6 -2 10 2 10 14 0 57 182 55 230 -4 70 -29 124 -73 156 -41 31 -48
44 -24 44 30 0 83 68 91 115 9 66 8 160 -4 244 -7 52 -7 81 0 100 6 14 12 31
12 36 1 6 7 34 15 63 7 29 11 67 7 83 -3 17 -1 39 4 50 6 10 11 67 11 126 0
125 -20 203 -69 275 -28 41 -39 88 -20 88 17 0 7 44 -17 72 -23 27 -24 31 -10
52 14 21 13 27 -5 68 -10 24 -28 56 -39 69 -10 13 -23 41 -29 62 -6 21 -23 48
-38 59 -14 12 -42 45 -60 75 -19 29 -39 53 -44 53 -11 0 -42 63 -38 78 2 5
-15 23 -37 39 -22 16 -69 64 -105 105 -36 42 -77 82 -92 88 -26 12 -32 20 -29
45 1 11 -44 43 -108 76 -34 17 -40 24 -27 29 14 5 10 11 -21 39 -21 19 -54 41
-73 50 -63 29 -108 61 -113 81 -3 11 -13 23 -24 27 -10 3 -37 23 -60 43 -24
21 -84 58 -134 84 -50 26 -110 62 -134 81 -23 19 -46 35 -52 35 -20 0 -240 73
-288 95 -27 13 -71 26 -97 30 -47 6 -70 28 -25 25 37 -3 42 -1 21 15 -17 13
-15 14 31 8 59 -7 57 -1 -5 21 -31 10 -46 12 -51 4 -4 -7 -10 -5 -15 5 -10 18
-88 27 -212 26 -68 0 -83 2 -88 16 -4 10 -1 21 7 26 11 7 11 9 -3 9 -10 0 -18
-4 -18 -9 0 -5 -21 -11 -47 -14 -43 -5 -86 -13 -165 -33 -18 -4 -28 -2 -28 4
0 6 17 16 38 21 20 5 53 14 72 19 l35 10 -45 0 c-25 1 -55 -3 -67 -8z m140
-47 c-7 -2 -19 -2 -25 0 -7 3 -2 5 12 5 14 0 19 -2 13 -5z m292 -83 c-3 -5
-10 -10 -16 -10 -5 0 -9 5 -9 10 0 6 7 10 16 10 8 0 12 -4 9 -10z m-1705 -240
c-14 -11 -30 -20 -37 -20 -7 0 -16 -8 -22 -17 -5 -10 -13 -15 -17 -11 -9 9 14
38 31 38 7 0 18 7 25 15 7 8 20 15 29 15 12 0 10 -5 -9 -20z m1659 -572 c12
-13 16 -14 46 -17 21 -1 19 -29 -2 -34 -10 -2 18 -3 62 -2 44 2 88 6 98 10 10
4 17 3 17 -4 0 -6 9 -11 19 -11 32 0 51 -11 51 -30 0 -11 7 -19 18 -19 9 0 29
-2 45 -5 15 -2 27 0 27 5 0 15 42 10 54 -7 6 -8 20 -16 30 -18 9 -1 21 -9 26
-16 5 -8 12 -12 15 -8 12 12 67 -14 61 -28 -4 -11 1 -13 20 -8 16 4 31 1 42
-9 9 -8 28 -18 42 -21 55 -15 120 -62 120 -86 0 -6 5 -10 11 -10 7 0 9 -10 5
-26 -6 -21 -4 -25 8 -21 9 4 16 2 16 -2 0 -5 -6 -12 -12 -14 -7 -3 -1 -6 14
-6 15 -1 33 -8 42 -16 8 -8 24 -15 36 -15 17 0 20 -4 15 -20 -4 -13 -2 -20 7
-20 8 -1 4 -8 -9 -19 -28 -23 -29 -31 -4 -31 23 0 38 -19 23 -29 -7 -4 -8 -12
-2 -21 5 -8 6 -27 3 -43 -4 -19 -1 -32 8 -38 12 -8 12 -11 -1 -19 -17 -11 -10
-13 14 -4 9 3 12 12 8 22 -5 14 -3 15 10 5 8 -7 17 -10 20 -7 3 2 8 -2 12 -11
3 -9 2 -14 -3 -11 -5 3 -12 -1 -15 -10 -9 -23 -7 -34 4 -34 5 0 7 6 4 14 -4
10 0 13 13 11 10 -2 21 -4 26 -4 4 -1 7 -6 7 -12 0 -8 -6 -7 -17 2 -15 12 -16
12 -10 -4 4 -10 3 -16 -1 -14 -4 3 -13 -1 -19 -9 -11 -11 -6 -21 27 -56 22
-24 40 -48 40 -55 0 -7 6 -16 13 -20 6 -4 12 -14 13 -20 1 -7 2 -22 3 -33 0
-11 6 -17 14 -14 8 3 13 -5 15 -23 1 -15 7 -32 12 -37 15 -15 12 -36 -5 -36
-8 0 -15 -4 -15 -10 0 -6 9 -6 23 -1 18 7 24 6 24 -5 0 -8 -6 -14 -13 -14 -20
0 -25 -17 -9 -30 13 -11 14 -10 9 4 -3 9 -1 16 4 16 16 0 19 -51 6 -80 -7 -16
-8 -32 -3 -45 9 -19 9 -19 5 2 -2 12 3 30 11 40 13 16 14 15 11 -19 -2 -21 0
-38 4 -38 4 0 8 -7 8 -16 0 -14 -3 -14 -15 -4 -13 10 -15 9 -15 -9 0 -11 4
-21 9 -21 6 0 9 -9 8 -20 -1 -11 -8 -20 -16 -20 -11 0 -10 -4 5 -15 14 -11 16
-15 4 -15 -13 -1 -13 -2 0 -13 9 -7 17 -32 19 -57 2 -25 7 -48 12 -51 10 -6
11 -17 8 -74 -1 -16 4 -31 10 -33 6 -2 11 -10 11 -18 0 -8 5 -14 11 -14 6 0 9
-7 6 -15 -4 -8 -2 -17 3 -20 6 -4 10 -11 10 -16 0 -6 -4 -7 -10 -4 -5 3 -10 2
-10 -3 0 -5 9 -12 20 -15 11 -3 20 -13 20 -24 0 -10 9 -32 20 -50 11 -19 15
-35 10 -38 -6 -4 -4 -12 5 -21 8 -9 15 -21 15 -29 0 -17 -27 -27 -34 -12 -5 9
-7 9 -12 0 -7 -15 -34 -18 -34 -4 0 5 -8 7 -18 4 -9 -2 -38 1 -62 6 -158 38
-724 30 -1090 -15 -121 -14 -339 -79 -430 -126 -25 -13 -62 -25 -83 -27 -42
-3 -102 -25 -112 -41 -8 -12 -65 -13 -84 -1 -8 5 -11 15 -8 23 6 17 -26 33
-138 69 -38 12 -74 26 -80 30 -23 16 -139 58 -202 73 -85 19 -265 42 -448 56
-214 18 -288 26 -309 35 -14 6 -17 5 -12 -4 6 -9 -5 -11 -43 -9 -28 2 -51 6
-51 11 0 4 -5 7 -11 7 -5 0 -7 -4 -4 -10 3 -5 -1 -10 -9 -10 -41 0 13 45 63
53 37 6 54 17 26 17 -14 0 -16 3 -8 11 11 11 47 16 156 20 26 1 47 5 47 10 0
5 29 7 65 5 42 -2 66 0 68 8 3 8 10 8 25 -1 12 -7 24 -9 27 -4 3 5 -1 11 -7
14 -7 3 5 4 28 2 22 -1 50 -8 62 -14 13 -7 22 -8 22 -2 0 6 15 4 34 -4 23 -10
37 -11 41 -5 4 6 14 5 28 -5 29 -20 43 -19 26 2 -13 15 -12 15 9 4 12 -6 22
-9 22 -5 0 3 7 1 15 -6 12 -10 15 -10 15 0 0 10 4 9 18 -2 34 -29 45 -32 37
-9 -7 22 3 27 23 11 9 -7 9 -7 2 2 -18 22 -10 32 10 13 38 -34 21 5 -22 52
-24 25 -51 54 -60 64 -9 10 -36 23 -60 28 -24 6 -65 18 -91 27 -29 10 -65 15
-92 12 -24 -3 -47 -3 -50 0 -3 4 -21 5 -40 4 -18 -2 -47 4 -64 12 -16 9 -40
16 -52 16 -12 0 -27 7 -33 15 -6 8 -25 16 -43 17 -31 2 -37 18 -7 18 12 0 12
2 2 14 -7 8 -15 10 -18 6 -3 -4 -18 -11 -35 -17 -22 -7 -31 -17 -33 -35 -2
-15 -10 -29 -18 -32 -10 -4 -14 0 -12 10 2 11 -5 18 -19 20 -27 5 -29 -3 -6
-28 15 -16 15 -18 1 -13 -9 4 -19 2 -23 -4 -3 -6 -17 -8 -30 -5 -14 4 -33 0
-47 -10 -12 -9 -31 -16 -41 -16 -18 0 -19 1 -2 26 17 26 13 60 -6 49 -6 -4 -8
-13 -5 -20 2 -7 -4 -22 -15 -34 -11 -12 -15 -21 -9 -21 6 0 8 -5 5 -10 -4 -6
-10 -8 -15 -5 -12 7 -1 66 16 85 8 10 11 32 8 63 -4 44 -2 48 21 57 15 6 23
14 20 20 -3 5 -2 10 4 10 5 0 15 -8 20 -17 6 -10 11 -13 11 -6 0 7 7 10 15 7
9 -4 15 0 15 9 0 8 6 17 12 19 9 3 8 9 -4 21 -21 21 -29 22 -22 2 4 -8 2 -15
-4 -15 -5 0 -12 9 -15 20 -3 11 -11 19 -19 17 -7 -2 -10 -2 -5 0 13 8 7 22
-13 28 -11 4 -18 11 -14 16 4 6 11 6 20 -2 18 -15 32 -3 16 13 -22 22 -13 31
13 14 14 -9 30 -14 36 -10 6 4 16 0 21 -7 7 -10 8 -8 3 7 -6 23 20 42 29 21 2
-7 5 -4 5 6 1 10 9 17 20 17 11 0 21 -8 23 -17 3 -15 5 -14 10 5 4 14 2 22 -7
22 -7 0 -16 8 -20 18 -7 16 -8 15 -15 -3 -8 -19 -9 -19 -9 3 -1 12 4 22 11 22
6 0 3 10 -8 22 -17 19 -17 21 -2 15 10 -3 20 -2 23 3 4 6 0 10 -7 10 -7 0 -1
8 12 17 14 9 27 18 29 19 2 2 -1 10 -7 17 -7 8 -8 17 -4 21 4 4 -6 18 -21 30
-25 20 -26 24 -13 36 14 11 16 9 16 -9 0 -11 4 -21 10 -21 15 0 39 63 28 76
-5 8 -1 13 12 17 11 3 20 11 20 17 0 7 -7 10 -15 6 -18 -6 -18 -5 -5 29 6 15
7 32 3 38 -4 7 -7 21 -8 32 0 13 -6 20 -17 19 -16 -2 -16 1 0 35 10 20 16 46
14 59 -4 24 -17 29 -25 10 -4 -8 -6 -9 -6 -2 -1 7 10 19 24 28 24 16 24 18 11
38 -18 25 -6 48 25 48 11 0 19 7 19 15 0 12 4 13 19 5 26 -14 42 -12 66 6 19
14 19 16 3 28 -24 18 -23 30 2 23 11 -3 20 -1 20 4 0 11 27 12 32 1 2 -5 14
-12 28 -15 19 -5 29 -1 38 14 10 16 10 20 -3 25 -8 3 -12 10 -9 16 3 5 11 4
20 -3 8 -6 27 -9 44 -5 22 4 30 2 30 -9 0 -8 7 -15 15 -15 8 0 18 0 22 -1 4 0
9 4 11 10 2 6 -3 11 -12 11 -9 0 -16 4 -16 10 0 5 8 9 18 8 9 -1 32 0 49 0 30
2 32 4 27 30 -5 26 -3 28 58 46 35 11 69 24 75 29 7 5 19 7 27 4 10 -4 13 -1
9 9 -3 8 1 14 10 14 8 0 18 7 21 16 4 12 14 15 34 11 34 -7 60 7 72 39 6 16
14 22 22 18 7 -5 9 -2 6 7 -4 11 3 14 29 13 19 -1 37 -5 40 -8 4 -3 16 2 27
13 18 16 30 17 91 11 82 -9 98 -5 89 23 -5 16 -3 19 10 14 8 -3 46 -9 83 -13
37 -3 78 -10 91 -15 14 -5 21 -5 17 0 -3 5 8 12 25 16 16 4 30 11 30 16 0 5
17 2 37 -6 24 -10 39 -12 41 -5 5 13 35 13 49 -1 14 -14 47 -3 40 14 -3 8 6
12 24 13 16 1 29 -2 29 -6 0 -4 12 -6 28 -6 15 1 33 -3 40 -8 9 -7 15 -3 18
11 5 20 8 20 38 8 38 -16 77 -10 69 11 -6 17 9 18 26 2z m359 -87 c3 -8 -1
-12 -9 -9 -7 2 -15 10 -17 17 -3 8 1 12 9 9 7 -2 15 -10 17 -17z m-2918 -190
c0 -12 -20 -25 -27 -18 -7 7 6 27 18 27 5 0 9 -4 9 -9z m910 -91 c0 -5 -4 -10
-10 -10 -5 0 -10 5 -10 10 0 6 5 10 10 10 6 0 10 -4 10 -10z m-130 -253 c0 -8
-7 -14 -15 -14 -25 0 -17 17 13 26 1 1 2 -5 2 -12z m-24 -112 c-8 -8 -17 -11
-20 -6 -4 5 2 17 11 27 11 10 18 13 21 5 2 -6 -3 -18 -12 -26z m9 -194 c9 -16
-9 -20 -23 -5 -10 12 -10 14 2 14 8 0 17 -4 21 -9z m-5 -41 c0 -5 -4 -10 -10
-10 -5 0 -10 5 -10 10 0 6 5 10 10 10 6 0 10 -4 10 -10z m-55 -98 c-3 -17 -13
-33 -22 -36 -26 -10 -26 0 -1 37 26 41 33 41 23 -1z m-95 -36 c0 -3 -4 -8 -10
-11 -5 -3 -10 -1 -10 4 0 6 5 11 10 11 6 0 10 -2 10 -4z m-40 -86 c0 -5 -5
-10 -11 -10 -5 0 -7 5 -4 10 3 6 8 10 11 10 2 0 4 -4 4 -10z m227 -232 c-3 -8
-6 -5 -6 6 -1 11 2 17 5 13 3 -3 4 -12 1 -19z m-149 -80 c-22 -22 -40 -32 -55
-29 -13 2 -20 8 -17 13 3 5 12 7 19 4 7 -2 16 2 19 10 3 8 12 14 21 14 8 0 15
5 15 10 0 6 7 10 16 10 11 0 5 -10 -18 -32z m-98 -38 c0 -5 -5 -10 -11 -10 -5
0 -7 5 -4 10 3 6 8 10 11 10 2 0 4 -4 4 -10z m881 -82 c8 -15 8 -18 0 -14 -6
4 -16 16 -22 28 -8 15 -8 18 0 14 6 -4 16 -16 22 -28z m-296 12 c3 -5 2 -10
-4 -10 -5 0 -13 5 -16 10 -3 6 -2 10 4 10 5 0 13 -4 16 -10z m2258 -227 c-18
-2 -48 -2 -65 0 -18 2 -4 4 32 4 36 0 50 -2 33 -4z m-2705 -10 c-15 -2 -42 -2
-60 0 -18 2 -6 4 27 4 33 0 48 -2 33 -4z m59 1 c-3 -3 -12 -4 -19 -1 -8 3 -5
6 6 6 11 1 17 -2 13 -5z m-189 -11 c-10 -2 -26 -2 -35 0 -10 3 -2 5 17 5 19 0
27 -2 18 -5z m-59 -7 c-2 -2 -17 -6 -34 -10 -22 -5 -26 -4 -15 4 14 9 59 15
49 6z m3446 -26 c10 -17 -14 -38 -35 -33 -30 8 -26 43 4 43 14 0 28 -5 31 -10z
m46 -72 c0 -61 3 -77 9 -60 8 19 13 21 29 12 26 -14 28 -13 34 10 4 15 -3 25
-24 37 -16 10 -29 25 -29 35 0 14 4 15 28 7 61 -22 82 -57 82 -140 0 -58 -8
-61 -95 -28 l-55 20 0 95 c0 56 4 94 10 94 6 0 10 -35 11 -82z m-2243 3 c47
-24 65 -46 81 -96 9 -29 10 -50 3 -75 -7 -22 -11 -27 -11 -14 -2 49 -36 120
-77 161 -49 48 -49 51 4 24z m631 15 c-23 -21 -119 -74 -119 -66 0 13 88 70
109 70 8 0 12 -2 10 -4z m1326 -16 c10 -11 16 -20 13 -20 -3 0 -13 9 -23 20
-10 11 -16 20 -13 20 3 0 13 -9 23 -20z m-2828 -26 c-3 -3 -12 -4 -19 -1 -8 3
-5 6 6 6 11 1 17 -2 13 -5z m1332 -27 c16 -20 4 -27 -45 -27 -58 0 -78 8 -63
26 15 18 93 18 108 1z m-2074 -17 c8 -12 -13 -52 -24 -46 -10 7 -2 56 10 56 4
0 11 -4 14 -10z m2645 -54 c0 -18 7 -50 15 -70 l15 -36 -32 0 c-18 1 -51 7
-73 15 -22 8 -48 15 -57 15 -10 0 -18 6 -18 13 1 18 113 95 143 97 4 0 7 -15
7 -34z m-1734 -73 c-7 -7 -38 5 -63 25 -16 12 -21 23 -17 40 4 12 11 22 16 22
5 0 6 -4 3 -10 -3 -5 3 -10 13 -10 11 0 23 8 27 18 6 12 10 4 17 -32 5 -27 7
-51 4 -53z m132 80 c-4 -22 -22 -20 -26 1 -2 10 3 16 13 16 10 0 15 -7 13 -17z
m68 -4 c10 -17 -13 -36 -27 -22 -12 12 -4 33 11 33 5 0 12 -5 16 -11z m177
-23 c52 -47 48 -62 -15 -70 -29 -3 -63 -6 -76 -6 -21 0 -22 1 -9 28 8 15 17
39 21 55 9 37 34 35 79 -7z m1487 20 c0 -17 -27 -29 -35 -16 -4 6 -3 15 0 20
9 15 35 12 35 -4z m58 -13 c-5 -25 -28 -28 -28 -4 0 12 6 21 16 21 9 0 14 -7
12 -17z m1312 3 c0 -2 -7 -7 -16 -10 -8 -3 -12 -2 -9 4 6 10 25 14 25 6z
m-2081 -68 c0 -31 -1 -31 -10 -10 -5 13 -7 28 -3 33 10 16 14 9 13 -23z m-332
-10 c-3 -7 -5 -2 -5 12 0 14 2 19 5 13 2 -7 2 -19 0 -25z m29 -165 c-10 -10
-19 5 -10 18 6 11 8 11 12 0 2 -7 1 -15 -2 -18z m-1596 -4 c0 -6 -4 -7 -10 -4
-5 3 -10 11 -10 16 0 6 5 7 10 4 6 -3 10 -11 10 -16z m18 -20 c-12 -16 -24
-26 -26 -20 -4 11 28 51 41 51 4 0 -3 -14 -15 -31z m-262 -144 c-48 -98 -51
-112 -69 -337 -1 -12 -4 -15 -12 -7 -6 6 -10 59 -9 127 1 108 3 122 32 191 18
40 32 77 32 81 0 4 8 25 17 46 l16 39 9 -45 c7 -38 4 -53 -16 -95z m4041 -245
c-3 -11 0 -20 6 -20 6 0 8 -3 5 -6 -4 -3 -3 -18 2 -34 7 -23 5 -29 -10 -33
-11 -3 -21 -2 -24 1 -10 9 -7 60 6 87 13 30 22 33 15 5z m-4077 -183 c0 -5 -4
-5 -10 -2 -5 3 -10 14 -10 23 0 15 2 15 10 2 5 -8 10 -19 10 -23z"/>
<path d="M4296 8734 c-16 -11 -17 -16 -6 -29 16 -19 34 -20 26 0 -3 9 0 15 9
15 8 0 15 4 15 9 0 16 -25 19 -44 5z"/>
<path d="M4293 8366 c0 -14 5 -23 13 -22 18 3 31 16 16 16 -7 0 -12 7 -12 15
0 8 -4 15 -9 15 -5 0 -8 -11 -8 -24z"/>
<path d="M4280 8320 c0 -5 5 -10 10 -10 6 0 10 5 10 10 0 6 -4 10 -10 10 -5 0
-10 -4 -10 -10z"/>
<path d="M4260 8291 c0 -5 5 -13 10 -16 6 -3 10 -2 10 4 0 5 -4 13 -10 16 -5
3 -10 2 -10 -4z"/>
<path d="M7135 8070 c-3 -5 -1 -10 4 -10 6 0 11 5 11 10 0 6 -2 10 -4 10 -3 0
-8 -4 -11 -10z"/>
<path d="M4095 8021 c-3 -5 -1 -12 5 -16 5 -3 10 1 10 9 0 18 -6 21 -15 7z"/>
<path d="M4131 8004 c0 -11 3 -14 6 -6 3 7 2 16 -1 19 -3 4 -6 -2 -5 -13z"/>
<path d="M4040 7849 c0 -24 4 -38 10 -34 6 3 10 15 10 26 0 10 4 19 10 19 5 0
7 7 4 15 -13 32 -34 16 -34 -26z"/>
<path d="M4265 7840 c-3 -5 -1 -10 4 -10 6 0 11 5 11 10 0 6 -2 10 -4 10 -3 0
-8 -4 -11 -10z"/>
<path d="M4445 7780 c-3 -5 -4 -10 -1 -10 2 0 12 -3 20 -6 12 -5 15 -2 10 10
-7 18 -20 21 -29 6z"/>
<path d="M6700 7764 c25 -14 36 -22 25 -18 -11 3 -40 10 -65 15 -25 5 -54 12
-64 15 -15 5 -18 2 -13 -15 3 -12 1 -19 -4 -15 -5 3 -9 0 -9 -6 0 -6 -5 -8
-11 -4 -6 3 -45 8 -87 11 -43 3 -79 6 -81 9 -2 2 -10 -1 -17 -7 -7 -6 -38 -12
-69 -14 -83 -6 -161 -22 -151 -32 3 -3 -3 -18 -13 -32 -31 -44 -60 -99 -54
-104 3 -3 19 3 36 14 37 22 51 24 41 7 -4 -7 2 -4 14 6 23 20 31 9 10 -12 -17
-17 2 -15 21 2 9 7 33 16 55 19 36 6 37 5 22 -11 -15 -17 -13 -18 39 -15 30 1
63 7 73 12 21 11 93 11 107 0 11 -8 71 -6 120 5 27 7 28 6 12 -7 -16 -14 -15
-15 16 -21 19 -4 42 -3 52 0 12 5 16 4 12 -3 -4 -6 -1 -11 6 -10 43 1 59 -4
53 -18 -6 -16 -3 -16 55 -20 66 -4 143 -16 154 -24 5 -5 31 -11 57 -13 38 -4
45 -3 41 9 -5 12 -1 14 15 8 38 -12 23 4 -24 25 -37 17 -44 24 -39 41 5 15 2
22 -15 26 -11 3 -19 11 -16 18 6 15 -54 75 -75 75 -8 0 -24 8 -35 18 -11 10
-25 17 -33 14 -7 -2 -16 0 -20 6 -13 22 -120 72 -153 72 l-33 -1 45 -25z m119
-55 l24 -19 -28 0 c-28 0 -65 24 -65 42 0 13 40 -1 69 -23z m48 -45 c-3 -3
-12 -4 -19 -1 -8 3 -5 6 6 6 11 1 17 -2 13 -5z"/>
<path d="M6042 7580 c0 -14 2 -19 5 -12 2 6 2 18 0 25 -3 6 -5 1 -5 -13z"/>
<path d="M4953 10063 c-7 -2 -13 -11 -13 -18 0 -8 -9 -17 -20 -20 -11 -3 -20
-11 -20 -16 0 -15 19 -10 40 11 11 11 24 20 28 20 5 0 17 7 28 15 18 14 18 14
-6 14 -14 0 -31 -3 -37 -6z"/>
<path d="M4728 7323 c6 -2 18 -2 25 0 6 3 1 5 -13 5 -14 0 -19 -2 -12 -5z"/>
<path d="M6224 7296 c-8 -22 -2 -27 16 -16 12 7 12 12 3 21 -10 10 -14 9 -19
-5z"/>
<path d="M5868 7172 c-10 -2 -18 -8 -18 -13 0 -5 -9 -9 -19 -9 -11 0 -22 -4
-25 -9 -10 -16 6 -71 21 -71 8 0 12 -4 9 -9 -3 -5 1 -11 8 -14 8 -3 17 -1 20
6 3 9 5 9 5 0 1 -6 9 -9 20 -6 20 5 41 42 41 73 0 13 5 17 14 14 8 -3 17 -1
21 5 3 6 0 11 -9 11 -8 0 -16 6 -18 13 -5 12 -36 16 -70 9z"/>
<path d="M6575 7151 c-3 -5 -1 -12 5 -16 5 -3 10 1 10 9 0 18 -6 21 -15 7z"/>
<path d="M5765 6930 c-3 -5 0 -10 7 -10 16 0 48 -50 48 -74 0 -21 -16 -20 -30
2 -11 16 -11 16 -6 -1 3 -10 6 -25 6 -33 0 -21 28 -17 40 6 8 15 7 26 -1 43
-7 12 -11 22 -9 22 2 0 -4 12 -14 28 -19 29 -31 33 -41 17z"/>
<path d="M7348 6883 c7 -3 16 -2 19 1 4 3 -2 6 -13 5 -11 0 -14 -3 -6 -6z"/>
<path d="M7420 6840 c0 -5 5 -10 10 -10 6 0 10 5 10 10 0 6 -4 10 -10 10 -5 0
-10 -4 -10 -10z"/>
<path d="M3718 6663 c6 -2 18 -2 25 0 6 3 1 5 -13 5 -14 0 -19 -2 -12 -5z"/>
<path d="M5171 6458 c-1 -7 -4 -46 -6 -85 -3 -55 -1 -73 9 -73 15 0 38 68 28
84 -3 6 -7 18 -7 26 -1 8 -2 25 -3 38 -2 23 -17 31 -21 10z"/>
<path d="M5126 6435 c-3 -9 -10 -13 -16 -10 -5 3 -10 -1 -10 -9 0 -20 -40 -67
-51 -61 -8 6 -102 -53 -107 -67 -2 -5 -10 -15 -19 -23 -8 -8 -11 -15 -7 -15 4
0 -8 -10 -27 -23 -19 -12 -33 -26 -32 -30 2 -4 -6 -23 -17 -42 -22 -39 -25
-49 -12 -41 5 3 9 -10 10 -30 1 -32 38 -84 60 -84 5 0 19 -11 32 -25 13 -14
34 -25 46 -25 13 0 25 -4 28 -9 3 -5 27 -12 53 -16 27 -5 54 -9 60 -11 27 -5
22 15 -7 28 -32 14 -40 28 -14 28 9 0 12 5 8 11 -5 9 9 10 51 4 51 -6 67 -14
125 -61 55 -44 79 -56 125 -65 70 -13 183 3 219 32 13 10 29 19 34 19 5 0 17
11 26 24 36 55 189 72 232 25 17 -19 17 -20 -2 -34 -18 -15 -18 -15 6 -11 14
3 41 7 61 11 114 18 188 111 154 192 -17 39 -37 36 -30 -5 6 -35 -9 -88 -24
-85 -6 2 -11 -2 -11 -7 0 -19 -54 -59 -80 -60 -14 0 -42 11 -62 25 -21 14 -65
32 -99 41 -91 23 -153 7 -226 -60 -27 -24 -42 -30 -82 -30 -27 -1 -47 2 -44 7
8 14 -15 7 -27 -8 -17 -21 -47 -11 -90 31 -20 19 -39 34 -44 34 -4 0 -19 9
-33 20 -41 32 -163 22 -254 -20 -38 -17 -60 -2 -93 66 -23 46 -27 65 -22 97 4
23 11 46 15 52 5 5 11 19 13 30 2 11 8 20 13 20 6 1 24 8 40 17 17 8 45 19 63
23 17 3 32 11 32 16 0 5 7 9 16 9 8 0 12 5 9 10 -3 6 -1 10 5 10 7 0 10 6 7
13 -2 6 -10 11 -16 9 -8 -1 -8 3 1 17 7 11 15 18 19 15 11 -6 21 28 11 38 -6
6 -12 3 -16 -7z"/>
<path d="M7740 6319 c-19 -34 -47 -70 -61 -80 -31 -22 -68 -87 -61 -109 2 -8
14 -23 26 -32 23 -19 51 -24 41 -8 -8 13 46 110 62 110 6 0 9 9 6 20 -3 11 -1
26 5 33 8 9 32 102 32 122 0 19 -20 -4 -50 -56z"/>
<path d="M3431 5944 c0 -11 3 -14 6 -6 3 7 2 16 -1 19 -3 4 -6 -2 -5 -13z"/>
<path d="M3920 5870 c-13 -8 -12 -10 3 -10 9 0 17 5 17 10 0 12 -1 12 -20 0z"/>
<path d="M3562 5848 c3 -7 15 -14 29 -16 23 -2 23 -2 5 13 -24 18 -39 20 -34
3z"/>
<path d="M5119 5486 c-2 -2 -42 -6 -89 -10 -95 -7 -143 -16 -200 -38 -43 -17
-55 -26 -52 -37 1 -7 4 -26 6 -44 3 -18 12 -45 20 -62 9 -16 16 -36 16 -43 0
-7 4 -11 9 -8 4 3 13 -5 19 -18 6 -13 24 -32 41 -42 17 -10 31 -24 31 -31 0
-8 8 -17 18 -20 9 -4 30 -20 46 -35 16 -16 35 -27 43 -24 8 4 11 1 7 -5 -7
-12 29 -40 63 -51 13 -3 23 -2 23 3 0 5 4 9 9 9 5 0 7 -9 4 -20 -4 -15 2 -22
22 -30 31 -12 48 -4 25 10 -13 8 -12 10 3 10 9 0 17 -4 17 -9 0 -17 39 1 46
21 4 15 12 19 30 15 13 -2 24 0 24 4 0 5 7 9 16 9 8 0 12 5 9 10 -3 6 -3 10 2
11 4 0 49 2 100 4 76 4 92 2 97 -11 5 -12 10 -13 19 -6 7 6 29 13 48 15 19 2
43 8 54 14 11 6 35 8 54 5 24 -3 32 -1 27 7 -4 6 -3 11 3 11 5 0 12 -4 16 -10
3 -5 11 -7 18 -5 52 15 66 14 72 -5 4 -11 11 -18 16 -15 5 3 6 -1 3 -10 -6
-14 -8 -14 -25 1 -18 16 -19 16 -19 1 0 -10 -8 -17 -19 -17 -11 0 -23 -4 -26
-10 -6 -10 40 -15 103 -11 17 2 32 -2 32 -8 0 -14 63 -7 68 8 2 6 10 11 17 11
31 0 72 58 66 93 -1 5 3 6 8 3 12 -8 42 4 36 14 -2 4 7 12 20 18 14 7 25 16
25 22 0 5 7 10 16 10 9 0 18 9 21 20 3 11 8 20 12 20 10 0 101 86 101 95 0 5
11 23 25 41 54 70 28 90 -125 98 -249 13 -378 8 -515 -20 -79 -16 -151 -18
-159 -5 -5 8 -58 14 -120 12 -16 0 -36 4 -45 8 -9 5 -57 12 -106 15 -50 4 -97
9 -106 12 -8 2 -17 2 -20 0z m861 -120 c0 -37 10 -37 46 0 52 56 84 37 69 -42
-7 -42 -57 -78 -94 -69 -19 5 -29 0 -46 -21 -20 -25 -24 -26 -53 -16 -29 10
-32 9 -32 -8 0 -21 -49 -60 -77 -60 -10 0 -36 -7 -58 -15 -50 -18 -102 -19
-108 -2 -4 8 -8 9 -14 1 -11 -15 -111 -26 -119 -13 -4 7 -10 7 -17 0 -12 -12
-95 -15 -121 -5 -9 3 -16 17 -16 30 0 13 -4 24 -10 24 -5 0 -10 -11 -10 -25 0
-14 -3 -25 -7 -25 -19 1 -100 33 -114 46 -9 8 -20 14 -25 12 -5 -1 -28 8 -51
20 -29 15 -43 29 -43 43 0 16 -3 18 -19 9 -34 -18 -49 -12 -56 23 -10 46 -13
49 -36 26 -29 -29 -63 -21 -67 15 -2 16 2 32 10 37 19 13 68 11 68 -2 0 -7 11
0 25 15 26 28 63 34 96 14 17 -11 22 -10 30 5 14 23 65 22 96 -3 25 -19 27
-19 45 -3 17 15 26 15 101 4 50 -8 87 -19 95 -29 11 -14 13 -14 25 0 8 11 37
18 94 23 76 7 82 6 93 -14 10 -19 13 -20 25 -7 8 8 15 18 15 23 0 5 25 10 55
11 46 2 56 -1 65 -19 10 -19 13 -19 28 -6 55 50 112 51 112 3z m-710 -306 c0
-5 -5 -10 -11 -10 -5 0 -7 5 -4 10 3 6 8 10 11 10 2 0 4 -4 4 -10z"/>
<path d="M5512 5018 c2 -5 8 -9 13 -9 5 0 11 4 13 9 1 5 -4 9 -13 9 -9 0 -14
-4 -13 -9z"/>
<path d="M5475 5000 c-3 -5 1 -10 10 -10 9 0 13 5 10 10 -3 6 -8 10 -10 10 -2
0 -7 -4 -10 -10z"/>
<path d="M7028 4913 c7 -3 16 -2 19 1 4 3 -2 6 -13 5 -11 0 -14 -3 -6 -6z"/>
<path d="M7020 4881 c0 -23 -1 -23 -18 -8 -22 20 -39 23 -23 4 8 -11 5 -14
-18 -14 -16 0 -41 -9 -56 -21 -15 -12 -31 -19 -36 -16 -5 3 -9 -3 -9 -13 0
-13 -2 -15 -9 -5 -6 10 -15 6 -38 -15 -16 -15 -32 -34 -34 -41 -2 -7 -15 -14
-28 -17 -30 -6 -33 -8 -35 -39 -1 -28 -21 -42 -32 -24 -4 7 -3 8 4 4 8 -5 12
1 12 14 0 21 0 21 -32 3 -33 -18 -62 -44 -109 -101 -15 -17 -29 -29 -31 -26
-3 2 -16 -7 -29 -21 -13 -15 -34 -30 -47 -35 -12 -6 -25 -17 -29 -27 -8 -19
-57 -66 -94 -89 -14 -9 -37 -34 -50 -55 -13 -22 -32 -42 -41 -45 -10 -3 -18
-10 -18 -15 0 -6 -4 -8 -8 -5 -5 3 -24 -10 -43 -30 -18 -19 -39 -32 -45 -30
-6 2 -20 -2 -31 -9 -10 -7 -37 -16 -59 -20 -21 -4 -55 -19 -74 -34 -55 -42
-267 -98 -328 -86 -20 4 -61 7 -91 6 -36 -2 -51 1 -46 8 4 7 -4 11 -22 11 -50
-2 -143 7 -149 13 -4 3 -26 4 -50 0 -52 -7 -168 28 -230 69 -23 16 -44 28 -47
28 -2 0 -26 10 -53 22 -27 12 -52 22 -56 23 -4 0 -21 15 -38 33 -16 18 -34 31
-39 28 -5 -4 -18 9 -30 26 -11 18 -38 48 -60 66 -23 19 -49 47 -58 63 -10 16
-23 29 -30 29 -7 0 -13 4 -13 9 0 4 -16 25 -35 45 -19 21 -35 44 -35 52 0 9
-5 12 -12 8 -8 -5 -9 -2 -5 9 6 17 -13 23 -52 17 -12 -1 -13 1 -2 13 7 9 8 18
2 21 -5 3 -11 0 -14 -6 -3 -9 -8 -6 -13 7 -13 33 -34 50 -44 36 -5 -9 -10 -10
-14 -2 -4 6 -3 11 2 11 6 0 8 9 5 19 -3 12 -11 17 -19 14 -10 -4 -14 3 -14 25
0 39 -20 53 -21 15 -2 -23 -2 -24 -6 -5 -5 24 -18 29 -26 10 -3 -7 -6 1 -6 17
-1 22 -4 26 -10 16 -5 -8 -7 -21 -3 -29 4 -12 0 -14 -17 -9 -18 4 -20 3 -10
-9 7 -8 17 -13 23 -11 17 6 47 -13 40 -24 -3 -6 4 -18 16 -26 18 -12 21 -22
16 -46 -6 -30 -6 -30 10 -12 8 11 13 14 9 7 -4 -7 -1 -20 6 -28 10 -12 14 -12
21 -2 5 8 6 4 3 -13 -5 -18 0 -32 17 -50 13 -13 34 -37 48 -53 l25 -29 -26 6
c-28 7 -59 -17 -67 -51 -8 -29 -3 -95 7 -105 6 -6 4 -21 -5 -40 -12 -22 -13
-31 -4 -37 9 -5 9 -9 1 -14 -6 -4 -12 -24 -12 -44 l-1 -37 -10 45 c-24 106
-29 120 -45 120 -31 0 -148 -84 -239 -171 -55 -52 -104 -90 -125 -97 -19 -5
-71 -20 -116 -32 -116 -32 -176 -82 -258 -217 -71 -117 -109 -161 -255 -292
-58 -52 -150 -141 -205 -197 l-100 -103 -185 -86 c-185 -87 -468 -228 -867
-432 -196 -100 -220 -116 -319 -203 -168 -149 -325 -319 -404 -438 -65 -96
-156 -272 -283 -542 -64 -136 -150 -358 -187 -480 -17 -58 -42 -139 -55 -180
-24 -75 -99 -378 -108 -435 -12 -74 -67 -382 -72 -402 l-5 -23 5330 0 5330 0
0 768 0 768 -48 89 c-62 116 -177 309 -261 440 -42 66 -202 253 -307 361 -168
172 -387 300 -1086 638 -98 47 -180 86 -182 86 -3 0 -119 56 -258 123 -139 68
-282 138 -318 155 -51 25 -78 47 -124 101 -32 39 -88 93 -125 121 -178 138
-310 234 -351 255 -25 13 -83 61 -130 107 -182 178 -373 316 -530 382 -113 47
-347 110 -374 100 -20 -8 -20 -47 -1 -139 17 -81 18 -85 7 -85 -5 0 -19 20
-31 45 -24 47 -45 61 -36 23 3 -13 6 -39 7 -58 2 -103 21 -265 34 -296 8 -20
12 -45 8 -56 -5 -18 0 -37 27 -90 5 -10 9 -27 9 -37 0 -26 15 -34 46 -27 16 4
24 14 24 29 0 12 7 31 15 41 14 19 15 19 21 0 3 -10 10 -30 15 -44 14 -38 20
-94 26 -223 5 -98 2 -135 -17 -225 -30 -142 -65 -256 -91 -298 -30 -49 -165
-163 -289 -246 -118 -78 -446 -243 -560 -281 -85 -29 -251 -62 -385 -77 -188
-21 -481 -7 -650 31 -94 21 -380 121 -470 165 -163 78 -388 262 -431 352 -29
62 -18 303 17 347 4 6 7 26 7 45 -3 112 8 321 18 358 7 23 10 42 7 42 -3 0 -1
6 6 13 7 9 7 17 0 24 -5 5 -11 35 -11 66 -1 42 3 61 17 77 17 19 19 19 37 3
19 -17 19 -16 12 12 -4 17 -11 38 -16 48 -5 9 -5 17 -1 17 4 0 2 5 -5 12 -20
20 -14 38 14 38 26 0 26 0 9 26 -12 18 -13 29 -6 38 6 7 8 15 5 18 -2 3 2 8
11 12 9 3 24 -4 37 -19 12 -14 26 -25 31 -25 9 0 96 -68 130 -102 18 -19 31
-22 82 -19 95 5 143 0 149 -16 7 -17 21 -16 41 3 13 14 22 15 58 5 56 -15 167
-30 192 -25 10 2 37 -1 59 -7 24 -6 145 -10 302 -10 209 0 292 5 401 21 76 11
155 19 175 18 20 -1 45 5 54 13 13 11 18 11 21 2 6 -18 52 -16 59 2 4 9 17 14
33 14 24 -2 24 -2 3 -6 -25 -5 -25 -26 0 -31 27 -5 93 32 92 51 -1 13 2 15 14
8 17 -10 60 14 93 51 9 10 26 18 38 18 11 0 21 4 21 9 0 5 18 12 40 16 22 4
40 11 40 15 0 5 16 17 35 26 22 10 35 23 35 35 0 11 5 19 11 19 6 0 34 23 62
50 28 28 55 50 59 50 3 0 10 10 13 23 4 12 20 33 34 47 15 14 28 32 29 40 1 8
4 31 6 50 4 32 5 75 7 204 0 49 11 82 34 101 17 14 24 50 14 66 -6 10 -9 7 -9
-10z m-2640 -163 c0 -6 -6 -5 -15 2 -8 7 -15 14 -15 16 0 2 7 1 15 -2 8 -4 15
-11 15 -16z m3045 -895 c82 -87 110 -144 110 -223 0 -61 -4 -72 -65 -182 -67
-122 -123 -198 -136 -186 -4 5 3 52 15 107 27 120 30 288 7 431 -19 116 -19
110 -1 110 9 0 40 -26 70 -57z m-3173 -450 c3 -51 1 -90 -3 -87 -26 15 -40
169 -16 177 6 2 13 4 14 3 0 0 3 -42 5 -93z m4863 -1513 c-3 -5 -10 -10 -16
-10 -5 0 -9 5 -9 10 0 6 7 10 16 10 8 0 12 -4 9 -10z m-2874 -557 c13 -16 12
-17 -3 -4 -10 7 -18 15 -18 17 0 8 8 3 21 -13z m-124 -70 c48 -22 73 -66 73
-127 0 -43 -4 -53 -39 -87 -34 -35 -44 -39 -87 -39 -114 0 -180 95 -132 190
37 73 111 98 185 63z m-332 -143 c3 -5 1 -10 -4 -10 -6 0 -11 5 -11 10 0 6 2
10 4 10 3 0 8 -4 11 -10z m35 -101 c0 -5 -4 -9 -10 -9 -5 0 -10 7 -10 16 0 8
5 12 10 9 6 -3 10 -10 10 -16z"/>
<path d="M6040 1080 c0 -11 7 -20 15 -20 8 0 15 9 15 20 0 11 -7 20 -15 20 -8
0 -15 -9 -15 -20z"/>
<path d="M4906 4257 c3 -10 9 -15 12 -12 3 3 0 11 -7 18 -10 9 -11 8 -5 -6z"/>
<path d="M4520 4147 c0 -8 9 -17 21 -20 15 -4 19 -1 17 11 -4 21 -38 29 -38 9z"/>
<path d="M7241 3794 c0 -11 3 -14 6 -6 3 7 2 16 -1 19 -3 4 -6 -2 -5 -13z"/>
</g>
</svg>
