<?xml version="1.0" encoding="iso-8859-1"?>
<!-- Generator: Adobe Illustrator 20.0.0, SVG Export Plug-In . SVG Version: 6.00 Build 0)  -->
<svg version="1.1" id="Layer_1" xmlns="http://www.w3.org/2000/svg" xmlns:xlink="http://www.w3.org/1999/xlink" x="0px" y="0px"
	 viewBox="0 0 20 20" style="enable-background:new 0 0 20 20;" xml:space="preserve">
<g>
	<path style="fill:#2D9CF5;" d="M15.5,11C13,11,11,13,11,15.5s2,4.5,4.5,4.5s4.5-2,4.5-4.5S18,11,15.5,11z"/>
	<path style="fill:#2D9CF5;" d="M4.5,9C7,9,9,7,9,4.5S7,0,4.5,0S0,2,0,4.5S2,9,4.5,9z"/>
	<path style="fill:#2D9CF5;" d="M15.5,9C18,9,20,7,20,4.5S18,0,15.5,0S11,2,11,4.5V6c0,2.8-2.2,5-5,5H4.5C2,11,0,13,0,15.5
		S2,20,4.5,20S9,18,9,15.5V14c0-2.8,2.2-5,5-5H15.5z"/>
</g>
</svg>
