<?xml version="1.0" encoding="UTF-8"?>
<svg width="1541px" height="1540px" viewBox="0 0 1541 1540" version="1.1" xmlns="http://www.w3.org/2000/svg" xmlns:xlink="http://www.w3.org/1999/xlink">
    <!-- Generator: Sketch 45.1 (43504) - http://www.bohemiancoding.com/sketch -->
    <title>Group</title>
    <desc>Created with Sketch.</desc>
    <defs></defs>
    <g id="Page-1" stroke="none" stroke-width="1" fill="none" fill-rule="evenodd">
        <g id="Group">
            <path d="M770.453302,248.227746 C483.193243,248.227746 248.895934,482.519039 248.895934,769.782859 C248.895934,1057.04292 483.193243,1291.34023 770.453302,1291.34023 C1057.71336,1291.34023 1292.00841,1057.04292 1292.00841,769.782859 C1292.00841,482.519039 1057.71336,248.227746 770.453302,248.227746 Z M770.453302,0.1453237 C1194.35759,0.1453237 1540.09084,345.878571 1540.09084,769.782859 C1540.09084,1193.68113 1194.35759,1539.41687 770.453302,1539.41687 C346.553526,1539.41687 0.813476097,1193.68113 0.813476097,769.782859 C0.813476097,345.878571 346.553526,0.1453237 770.453302,0.1453237 L770.453302,0.1453237 Z" id="Fill-2" fill="#00569F"></path>
            <path d="M34.5742949,752.367234 C34.699122,752.506348 34.8166173,752.649222 34.9414443,752.792097 C37.090161,752.848494 38.9259829,751.912292 40.7634216,751.494948 C44.3807733,750.675301 50.3713423,751.682941 54.163527,752.44995 C62.2517163,754.077965 71.1621849,762.759459 75.8563576,767.094566 C87.226896,777.580788 95.1150613,789.420555 108.429066,798.876578 C109.711175,799.278882 110.993284,799.684946 112.269377,800.09101 C119.025451,802.384518 118.577653,797.865179 122.799965,796.876338 C131.012981,794.966334 139.374136,797.207205 144.903747,803.60271 C146.162545,805.050252 147.948473,806.557952 148.59028,808.310042 C149.94721,812.024774 146.952865,814.908579 144.007775,816.209487 C141.398063,817.360001 138.391687,819.078252 135.395462,819.473036 C130.538488,820.097172 125.931168,819.88286 121.591173,821.14241 C121.554702,821.292804 121.510712,821.439438 121.466346,821.589832 L121.579517,821.777824 C124.978046,822.702748 127.574598,823.729187 130.340344,824.988736 C133.665555,826.507716 136.435437,826.259566 139.60499,827.537915 C144.181104,829.384001 148.571105,830.357802 152.974265,831.534635 C156.422799,832.459558 161.479422,834.324444 165.091134,834.222928 C173.565459,833.993577 177.699791,816.694507 183.894519,811.426957 C188.415363,807.584391 195.943711,809.802702 202.251987,809.565832 C206.161479,809.407918 213.820669,808.832661 217.151897,807.392638 C220.440261,805.971415 225.80068,804.486274 228.086292,801.557351 C231.472789,797.199685 232.943267,791.210244 234.72318,784.416195 C236.71026,777.78006 238.695837,771.147684 240.68179,764.515309 C240.981074,762.018769 240.083974,758.96577 239.773786,756.70986 C239.218832,752.754498 240.152779,744.091804 237.831072,741.546385 C233.721556,737.038325 226.621831,730.593942 221.186216,737.771496 C220.471092,738.718978 219.006631,740.301875 218.802471,741.783256 C218.055013,747.174881 217.830174,755.393913 217.444037,761.341996 C216.971048,768.545868 215.42011,775.53167 214.598958,781.615107 C213.776679,787.698544 209.966823,791.721584 205.377174,791.777981 C197.462314,791.875737 194.231475,779.671264 193.291512,773.181763 C192.518863,767.876615 193.802476,762.99633 191.099896,758.920652 C186.043274,751.273117 175.233705,754.735939 166.28639,749.19768 C158.429055,744.343714 150.819871,738.978408 145.514723,732.39867 C144.386768,730.996246 144.082972,729.229117 143.483652,727.499586 C142.101531,723.514145 136.890755,715.86285 132.525569,713.558062 C127.213653,710.749454 117.843355,719.13016 114.150806,721.36727 C107.942917,725.115841 101.653816,729.097522 95.7452121,733.338633 C92.8738147,735.40655 89.431296,739.038565 85.9316276,739.801815 C82.439103,740.568824 77.3456342,737.66246 73.9572574,737.154881 C60.8695955,735.199759 42.9678217,730.139 34.5742949,752.367234 Z M97.3078058,745.18216 C99.1012542,738.557305 115.227627,728.465867 123.595925,733.767256 C128.403269,736.812734 131.603278,741.241838 135.414637,744.573065 C140.421254,748.94953 144.548441,755.506708 139.723802,762.793298 C135.476299,762.266919 131.2303,761.7443 126.977158,761.214161 C118.341159,760.116285 108.969357,756.168442 102.787787,752.156682 C101.192483,751.122723 99.0264332,750.45723 98.0116497,749.073605 C97.7751551,747.780217 97.5443003,746.483068 97.3078058,745.18216 Z M157.879741,768.271399 C158.035399,770.01597 157.706412,771.621425 156.728475,772.884735 C156.124643,773.674304 155.576833,773.956292 154.985033,773.948773 C152.562937,773.929973 152.768601,772.629065 152.674605,770.711542 C152.507292,767.369035 153.45327,765.921493 157.879741,768.271399 Z M170.121437,771.632705 C171.024553,771.422153 171.516717,771.523669 171.74118,772.51251 C172.083327,774.02397 171.572363,774.02397 170.415081,774.174364 C169.431128,774.305958 169.231104,773.967572 169.03296,773.302078 C168.652463,772.01997 168.770147,771.937253 170.121437,771.632705 Z M558.570716,87.3851233 C558.521838,87.5994347 558.47296,87.817506 558.420322,88.0355773 C559.555796,91.2427294 560.687511,94.4423617 561.815466,97.6419941 C562.458401,99.7700692 563.951061,101.950782 564.300727,103.563758 C565.447481,108.880186 574.162814,118.114377 569.350206,124.137657 C565.334686,129.172096 556.566716,132.32285 551.746588,136.210535 C550.332884,137.34977 548.024336,138.84243 547.960419,140.526843 C548.340164,143.974626 551.592434,146.298213 552.141372,149.926468 C552.987338,155.468487 552.239128,165.338093 556.94646,169.297215 C559.322686,171.301215 562.638873,170.342454 565.353485,171.417771 C567.613155,176.346934 565.661793,186.385734 564.413522,190.705801 C563.304367,194.548368 560.800307,198.913554 564.834626,203.831438 C568.365125,208.128946 572.395684,208.309419 578.167054,206.824278 C579.874026,206.068548 581.584757,205.309059 583.299249,204.545809 C588.243452,203.034349 592.022101,197.443452 596.116578,200.165584 C602.226334,204.218702 603.993463,212.915235 609.449006,220.277022 C610.10322,221.168106 611.001824,223.924076 611.866589,225.059551 C618.164338,233.297382 622.100901,243.433938 629.511565,250.276865 C632.463048,252.998996 634.15122,257.217548 637.373412,259.067394 C637.538845,258.999717 637.700519,258.92452 637.862192,258.849323 C638.726958,255.574493 636.508646,252.194388 635.470928,248.208947 C633.771475,241.644249 631.011746,236.203746 629.624361,229.454815 C628.229457,222.690845 626.477366,215.742642 626.578882,209.448654 C626.63528,205.993351 628.297134,202.568128 627.718117,198.842117 C627.451168,197.082507 626.323213,195.909434 625.943468,194.514529 C625.37573,192.442852 623.796593,189.592886 622.766394,188.028788 C619.63068,183.276338 617.886109,178.726919 617.066462,173.887992 C616.431047,170.158221 616.652878,165.41329 617.307092,161.92415 C618.348571,156.40469 621.897869,150.321252 617.021344,143.185057 C612.08842,135.958625 605.568841,133.003383 600.053141,128.047901 C596.368488,124.735473 593.702754,120.753792 590.078259,117.125537 C585.882266,112.918265 577.956502,96.2771685 575.204292,90.2313297 C574.313208,89.4417612 560.078415,86.9752996 558.570716,87.3851233 Z M503.259562,112.703953 C497.251322,120.663556 495.247322,140.767474 497.525791,152.118461 C498.05969,153.438168 498.601108,154.757875 499.138767,156.077583 C500.845739,164.473328 505.669626,173.624803 504.120568,180.787317 C503.684425,182.791317 496.010571,189.389854 494.239682,191.465291 C487.227562,199.673044 479.087487,212.497892 484.753581,225.08963 C485.377716,225.394177 486.001851,225.706245 486.629746,226.010793 C493.27716,223.247303 495.232282,216.588609 500.744223,213.178425 C503.124208,211.708323 507.357799,211.321059 506.440395,212.667085 C507.526992,215.449374 506.350159,218.976113 506.511832,221.709524 C506.857739,227.642568 507.109649,233.131949 506.865258,238.963476 C506.711105,242.640609 505.801221,247.325382 506.553191,251.092752 C507.850339,257.578493 512.463675,264.098073 516.704786,267.354103 C521.795623,266.18479 521.664028,262.349743 523.167968,259.511056 C525.848741,254.427739 527.811383,249.90464 530.999736,245.201067 C531.845702,243.949037 534.112891,237.933277 535.868741,238.061112 C540.482077,237.662568 547.712269,253.705848 546.68959,258.119912 C546.106813,260.650291 543.508756,261.372182 542.019856,263.413781 C542.016096,263.519056 542.016096,263.613053 542.008576,263.714569 C543.726828,267.335304 553.840824,271.012437 557.480359,269.564895 C562.695271,262.797165 560.540877,252.100392 553.840824,242.948917 C551.754108,238.907078 549.659871,234.85772 547.569394,230.812121 C545.41876,226.845479 543.264366,222.878838 541.109972,218.912196 C540.587353,216.122387 543.215488,208.512451 543.809544,205.568488 C545.042775,199.485051 545.580434,192.803798 546.050415,186.577486 C546.43392,181.396413 546.18577,175.95967 545.290925,170.387572 C545.008937,168.66932 544.132892,164.864352 542.749267,164.349253 C540.391841,166.66908 540.395601,171.545606 539.884261,174.6926 C539.41804,177.591444 538.639751,181.024188 538.14721,183.945591 C537.538115,187.596405 537.872741,191.036668 536.835023,194.480691 C536.15073,196.75916 531.14261,202.410214 527.506835,200.816038 C522.697987,198.706762 522.818302,188.401013 520.35184,184.393013 C517.306362,179.441291 513.34724,174.873073 510.053611,168.785876 C509.730264,167.511287 509.410677,166.240457 509.08733,164.969628 C508.218804,163.221298 506.474234,160.439009 506.399037,158.265815 C506.33136,156.055024 507.748823,153.284014 508.399277,151.234896 C510.670227,144.012224 513.715705,135.120179 514.024013,127.374888 C514.275923,121.291451 512.106489,108.77491 503.259562,112.703953 Z M570.196172,145.12514 C578.336247,142.703796 581.043339,153.746476 575.226851,158.104142 C573.971061,158.122941 572.711511,158.1455 571.455722,158.171819 C568.906543,157.784555 565.079016,154.099902 565.515159,150.716037 C565.857305,147.990145 568.632074,147.422408 570.196172,145.12514 Z M588.096818,180.46773 C586.611677,182.904113 582.479602,187.382094 578.734791,186.385734 C574.046258,185.141223 576.24953,174.023347 576.903744,171.402731 C586.728232,165.026026 592.28905,173.7 588.096818,180.46773 Z M522.066332,213.919115 C529.785304,211.53913 527.63091,225.506973 521.994895,221.995273 C518.35912,219.641607 521.288043,215.941914 522.066332,213.919115 Z M1526.35987,789.285201 C1522.37066,787.397756 1516.36242,789.067129 1512.10251,787.758702 C1507.15831,786.247242 1502.00732,785.05161 1497.04431,783.363437 C1494.88616,782.630266 1492.64905,781.103767 1490.50218,780.449553 C1488.08459,779.716383 1480.54985,777.456713 1477.94804,779.77654 C1478.58345,782.555069 1478.80152,784.810979 1480.3957,787.063129 C1482.4373,789.950694 1486.14075,791.093689 1488.08083,794.665546 C1492.51746,802.84322 1493.64541,815.983896 1502.15771,819.066973 C1503.31574,819.484316 1508.5081,820.687468 1510.02708,819.845262 C1510.80537,819.285044 1511.58365,818.724826 1512.36194,818.172128 C1521.5247,812.85946 1522.94216,808.3514 1525.3823,799.128488 C1526.24331,795.898777 1527.5931,793.593989 1526.35987,789.285201 Z M1491.76173,712.219555 C1491.32934,711.35855 1490.8932,710.493784 1490.45706,709.632779 C1489.5171,708.245394 1486.61073,706.790332 1485.11055,706.248914 C1483.17799,705.542062 1481.05743,705.850369 1478.69625,705.948126 C1477.12087,705.936846 1475.55301,705.929326 1473.97388,705.918047 C1471.22167,705.82405 1468.78152,708.463465 1467.45054,709.486144 C1461.87092,713.757334 1459.97971,714.975525 1458.04715,721.348471 C1457.59221,722.547863 1457.13727,723.758535 1456.68609,724.957927 C1456.13715,725.88661 1455.03551,726.352832 1454.71216,727.416869 C1453.85868,730.232997 1457.37038,736.696179 1459.3067,738.226438 C1469.55981,735.594543 1490.54353,726.13476 1492.08883,718.757935 C1492.52498,716.671218 1492.10387,714.452906 1491.76173,712.219555 Z M1496.51794,744.482828 C1492.37082,740.711699 1478.57593,742.640502 1475.55301,748.047166 C1474.45514,750.002288 1475.4703,751.931091 1476.21099,754.194521 C1476.67721,755.878934 1477.13967,757.574626 1477.60589,759.262799 C1478.88424,760.898333 1481.37326,762.018769 1483.36598,762.537628 C1484.65561,762.864735 1486.95288,763.898694 1488.58465,763.308397 C1492.99872,761.714221 1497.36766,749.216479 1496.51794,744.482828 Z M1457.7614,766.338836 L1453.76468,754.480269 C1446.96311,742.219399 1439.81564,729.627661 1432.38993,718.539863 C1429.76556,714.625859 1426.33658,707.700216 1422.6256,706.060921 C1419.24174,704.560741 1414.68104,705.598459 1410.6204,705.237514 C1406.21762,704.83897 1392.47537,703.711015 1388.94487,707.809251 C1386.92583,710.151638 1384.61728,717.573582 1387.50485,721.314633 C1391.5918,726.600982 1400.21314,724.739856 1404.56704,729.285514 C1407.2215,732.049004 1407.74412,736.466828 1410.12034,739.831894 C1414.87655,746.569545 1421.29086,752.149162 1426.57345,758.428112 C1429.84828,762.312037 1438.6764,773.084007 1435.89411,778.389156 C1429.50613,778.633546 1425.35901,770.798018 1421.52397,766.289958 C1414.95927,758.589785 1410.26698,752.562746 1400.48385,750.288037 C1399.22054,749.994768 1397.2203,749.317995 1395.90435,749.19016 C1392.63704,748.874333 1383.93299,752.194281 1382.49297,754.495309 C1379.22566,759.744059 1385.36549,761.793178 1388.37713,763.041448 C1394.65984,765.635744 1411.15054,769.636225 1411.1167,779.317838 C1407.15758,782.603947 1402.57056,783.675505 1397.44965,782.630266 C1388.49745,780.810499 1370.26969,770.049808 1365.94963,761.259279 C1362.98686,755.22472 1363.18614,746.18604 1363.04702,740.557545 C1362.97182,737.1812 1364.54344,733.928929 1361.36637,731.744456 C1358.18553,729.552464 1351.9517,731.116561 1349.0491,734.098123 C1345.01478,738.260276 1343.0371,744.253477 1340.42024,749.284157 C1338.4576,753.059046 1334.17513,756.98057 1331.02062,759.529748 C1325.68163,763.831016 1318.3988,767.515669 1317.93634,774.618026 C1317.75587,777.366476 1320.60583,783.656705 1321.06078,785.972773 C1321.9293,789.465674 1322.78655,792.958574 1323.65131,796.451475 C1323.65131,797.789982 1324.0649,802.546192 1324.74919,803.662867 C1327.28709,807.753584 1331.79515,810.626109 1335.99866,811.908218 C1337.0627,811.85934 1338.13049,811.806702 1339.19829,811.765344 C1346.42848,812.329321 1357.70427,808.61459 1363.02446,812.716586 C1368.64544,817.062973 1369.25453,825.492556 1373.02942,832.497157 C1375.43949,836.971378 1377.24045,842.629953 1383.651,838.997938 C1389.25694,835.824624 1394.2613,824.229247 1392.93031,817.596871 C1391.96403,812.791783 1386.50472,807.373839 1384.07586,804.129089 C1382.38769,801.884458 1381.44397,799.793982 1384.11346,798.376518 C1389.84723,795.31976 1400.63048,797.391437 1405.23254,798.605869 C1407.00343,799.07585 1409.05631,800.151167 1410.98887,800.263963 C1412.79736,800.361719 1413.81252,799.346559 1415.68116,799.117209 C1420.52761,798.519392 1424.65968,797.113209 1428.6752,798.188526 C1435.59333,800.057171 1441.73316,808.682267 1450.93351,804.147888 C1452.63673,803.301922 1454.68584,803.313201 1455.67093,802.106289 C1457.82908,799.466875 1459.21646,792.864578 1459.95339,789.30024 C1461.08511,783.79582 1459.10743,777.686064 1459.09615,771.715422 C1458.64497,769.921973 1458.20506,768.128525 1457.7614,766.338836 Z M1356.54624,779.013291 C1359.46012,788.638507 1350.90647,792.605148 1344.83431,787.830139 C1339.71715,783.79958 1336.59648,767.150964 1345.05238,766.124525 C1350.75607,768.7489 1352.36905,773.719422 1356.54624,779.013291 Z M1049.2913,112.448283 C1045.68184,114.061259 1043.63272,119.212254 1041.39185,123.122498 C1038.37645,128.378768 1035.29714,134.762993 1032.33813,139.797432 C1030.15366,143.512164 1028.98435,149.396329 1026.10054,152.866671 C1019.29897,161.040585 999.593601,154.107421 989.242734,156.750596 C981.602719,158.705718 976.211094,164.710198 969.612557,169.094183 C968.153735,170.064225 964.585638,169.19194 964.220932,167.214258 C963.53288,163.42057 972.511401,156.931069 974.586839,155.543684 C975.169615,154.851872 975.756152,154.160059 976.335169,153.468247 C982.993863,146.963706 993.731995,141.143459 995.751034,128.987864 C996.566922,126.82595 997.382809,124.671556 998.198697,122.517162 C998.446847,120.261252 998.134779,116.866107 997.172257,115.053859 C995.469045,111.876786 987.780152,107.349927 983.621758,108.793709 C980.252932,109.951743 968.180054,125.56264 966.702433,130.518122 C965.957983,133.014663 961.205532,140.6058 959.51736,140.985545 C955.208572,141.963106 939.161532,133.58992 937.052256,138.744674 C940.981299,144.86571 944.96674,149.88887 944.940421,157.814633 C944.929142,162.281335 943.21089,168.300855 940.650432,172.105823 C939.872143,173.316495 939.093855,174.523407 938.315566,175.722799 C937.296646,178.760758 933.645832,181.272338 931.720789,183.359054 C923.178409,192.653404 909.048893,200.00767 895.539752,197.789359 C889.535272,205.256421 890.460195,216.257742 894.784022,222.269742 C899.423677,224.036871 904.055812,223.307461 907.87958,223.371378 C910.090372,223.408977 912.804983,222.07423 915.290244,222.480294 C919.41104,223.160826 921.118012,232.244624 926.325404,233.259784 C932.732188,231.59041 937.187611,224.160947 940.545157,216.938275 C942.143093,213.501772 942.289727,209.459933 944.741149,206.301659 C949.677832,199.932473 955.74999,196.932113 961.784549,193.145944 C963.303529,192.536848 964.818748,191.931512 966.333968,191.329936 C968.228932,190.021509 973.703274,186.73916 975.857668,186.577486 C975.820069,186.671482 975.782471,186.765478 975.748632,186.859475 C976.117097,195.082267 966.454283,200.244541 968.217653,207.155145 C968.650035,208.880916 969.973503,209.155385 971.266891,210.569089 C975.007942,214.652286 986.148377,227.973434 984.618118,233.477855 C984.516602,233.60193 984.411327,233.718485 984.31357,233.84256 C981.399687,233.887678 976.80891,234.673487 973.515281,232.646928 C963.333607,226.390538 959.239131,215.362898 964.187093,202.094387 L963.085457,199.909914 C962.77339,199.733201 962.461322,199.567768 962.153015,199.391055 C960.848347,200.150544 959.25041,200.368616 957.941983,201.173224 C953.260969,204.049509 944.504279,219.652886 943.086815,225.943115 C942.323566,229.311941 939.300646,232.067911 939.270567,235.587131 C939.379603,239.222906 948.610035,243.11435 952.140534,245.772564 C958.558598,250.607731 973.410005,255.879041 982.053901,256.788925 C987.979424,257.40554 997.544483,256.969398 1002.12022,260.691649 C1001.90967,268.835484 1001.95103,274.441421 1005.64696,280.679012 C1008.34653,285.262269 1015.52033,287.946802 1020.53221,290.183913 C1035.44377,296.838847 1056.48389,303.869767 1070.91796,302.362067 C1071.00819,302.132716 1071.09467,301.895845 1071.18866,301.658975 C1070.22238,297.102037 1064.86084,296.26735 1060.96939,292.966202 C1059.30754,291.544978 1057.57049,289.822967 1055.79208,287.946802 C1053.26546,285.281068 1051.30658,281.239229 1049.14466,278.351665 C1048.29118,277.490659 1047.43393,276.633413 1046.58045,275.772408 C1044.24558,272.230629 1042.17766,268.576055 1039.48561,265.207229 C1036.76348,261.789525 1035.33473,256.864122 1032.93219,253.232107 C1031.89071,251.65673 1030.5898,250.051274 1029.79648,248.344302 C1026.64196,241.535213 1031.40569,240.098951 1034.92867,235.654808 C1035.32722,234.733645 1035.72952,233.820001 1036.13182,232.895078 C1036.96651,231.977675 1037.79368,231.060271 1038.62836,230.142868 C1039.38033,228.285502 1040.13982,226.428136 1040.89555,224.57077 C1043.13642,220.363498 1046.27966,215.182425 1047.54297,210.847318 L1048.47917,205.414334 C1049.54697,200.992751 1052.27662,195.725201 1050.38917,192.303738 C1047.10683,186.351895 1034.57901,189.908713 1028.83395,186.389493 C1029.52577,184.746439 1029.48817,182.167182 1031.01843,180.625643 C1036.28598,175.301696 1050.79524,178.805876 1058.32998,177.305696 C1059.79632,176.681561 1061.26266,176.061185 1062.729,175.43705 C1064.51869,174.639962 1072.61741,168.992668 1072.61741,166.315654 C1076.17423,161.92415 1082.60733,152.735076 1079.76112,147.475046 C1078.74596,147.038903 1077.73832,146.602761 1076.72316,146.159098 C1074.41838,145.929748 1071.90304,148.433808 1070.02311,149.411369 C1065.43985,151.787594 1061.07467,154.490926 1055.91991,155.6452 C1052.68644,156.370851 1049.07699,158.220697 1046.20446,154.539804 C1044.04255,151.765035 1047.38881,146.726836 1048.2047,142.910588 C1050.11471,133.917027 1059.78128,116.358527 1049.2913,112.448283 Z M992.769473,167.41353 C993.882389,168.42869 994.995304,169.44385 996.119499,170.451489 C996.574441,171.643362 997.033143,172.835234 997.495605,174.030867 C999.037143,175.891992 1003.07522,177.050026 1002.92859,179.629283 C1002.64284,180.106784 1002.34957,180.588045 1002.06382,181.073066 C1001.90215,181.915272 1001.69912,183.644803 1000.67644,184.72388 C997.991905,187.562567 993.825991,189.841036 989.705195,186.517328 C988.731394,185.400653 987.768873,184.280218 986.798831,183.167302 C984.967784,181.670882 982.170456,182.599565 981.58016,180.381253 C981.801991,177.907272 990.908347,168.233178 992.769473,167.41353 Z M1023.38217,209.249381 C1024.45749,209.632886 1025.03651,210.095348 1025.17186,210.892436 C1025.85615,217.250342 1014.17054,226.759003 1009.46697,223.920316 C1009.65872,221.893757 1009.94071,222.235903 1007.92167,222.044151 C1007.59456,212.734762 1016.84003,209.602807 1023.38217,209.249381 Z M346.697528,444.623511 C348.844779,431.321162 341.012259,422.767503 328.453608,411.732343 C323.048824,406.976133 314.518476,405.81058 311.628279,399.79106 C309.356202,395.038609 311.709116,388.586707 313.092365,382.860455 C313.751843,380.093206 315.968274,377.886174 315.794945,375.637783 C315.589281,372.945731 313.142371,369.505468 309.317852,369.746098 C306.896132,369.904012 305.097044,372.107284 302.973105,373.532267 C300.645382,375.100125 297.002839,376.209281 294.835285,377.871134 C293.372328,379.672102 291.915386,381.469311 290.458444,383.270279 C286.927945,386.635345 282.886106,391.429153 279.823708,395.140125 C278.963079,396.877176 278.103953,398.614227 277.238811,400.358797 C274.294097,405.55115 270.302264,411.608268 264.928311,410.766062 C258.689215,409.792261 251.759812,400.772381 248.827129,397.125326 C238.945491,384.864455 222.56984,360.290076 201.87149,363.907051 C197.239355,364.715419 191.542054,368.44519 187.905527,372.118564 C185.757149,374.291757 184.697999,376.97629 182.307111,378.750939 C182.239433,380.627104 183.321894,381.7325 183.608395,383.394354 C184.661153,389.440193 187.058057,395.02733 189.057169,400.79494 C189.331638,400.873897 189.598964,400.956613 189.872305,401.03557 C196.211036,400.986692 202.344479,392.248801 209.405854,393.335397 C212.569391,393.816658 217.357184,398.407435 220.240237,400.591908 C231.24231,408.938775 240.233616,418.507593 250.184059,426.478475 C255.658024,430.86246 265.775781,433.813942 266.373597,439.968817 C266.709727,443.476757 263.932326,447.341883 261.797107,450.349763 C260.912791,452.263526 260.022834,454.17353 259.131374,456.083534 C255.152701,461.877463 249.722725,472.71711 253.235929,477.815467 C255.558012,481.180533 262.158429,479.920983 265.058777,481.086536 C265.583276,481.297088 275.209244,479.466041 276.933512,479.293088 C283.216221,478.676473 289.997486,480.75567 296.709195,483.203332 C301.796648,485.906664 306.890116,488.613756 311.983585,491.317088 C313.371722,491.794589 315.072302,493.903865 316.398401,493.28349 C320.769227,490.636555 322.451008,484.598236 326.385691,480.511279 C337.145253,467.896983 344.791284,456.403121 346.697528,444.623511 Z M295.819238,428.497515 C305.900524,427.125169 315.295637,440.352322 318.664839,446.465838 C320.471071,449.733147 321.124909,454.286326 320.906085,458.204089 C312.756234,465.219969 303.053941,469.367084 292.599679,468.592555 C287.152408,468.190251 280.066219,464.501838 279.437572,459.339564 C278.970222,455.466919 282.189782,449.597793 283.041764,445.811624 C284.088882,441.171969 291.534889,429.072772 295.819238,428.497515 Z M1290.86918,487.192533 C1289.2938,485.545719 1287.72595,483.887625 1286.15433,482.229531 C1283.49235,480.105216 1280.32656,478.071137 1277.54427,477.198852 C1266.27976,483.801148 1274.31456,491.715632 1275.57411,500.137696 C1276.09297,503.592999 1274.53639,507.82283 1274.19425,511.289411 C1273.69043,516.34641 1275.82602,523.053982 1277.96162,528.133539 C1279.66107,532.179138 1289.69987,542.699198 1292.8619,542.105142 C1297.05789,540.574883 1300.49064,533.762035 1301.65995,531.442208 C1306.9087,521.042462 1306.03642,511.469884 1300.94934,500.570079 C1299.49804,497.460683 1296.32848,494.204653 1294.8847,491.884826 C1293.74547,490.046259 1291.49332,488.598717 1290.86918,487.192533 Z M1369.99522,373.70522 C1362.78007,370.137123 1355.56492,370.45671 1348.12794,373.919532 C1344.63504,376.931172 1341.13837,379.946571 1337.63795,382.965731 C1329.20085,389.853776 1319.39892,399.384996 1310.71367,404.186324 C1307.72459,405.836899 1305.41228,408.57031 1302.30664,409.32228 C1297.9189,410.382557 1294.22673,411.950415 1289.32012,409.149326 C1286.62807,407.611548 1285.09029,405.077409 1283.13517,402.813979 L1276.61559,396.110167 C1271.46083,386.266879 1264.6931,382.946932 1255.42883,385.131405 C1253.91361,385.48859 1247.2098,388.24456 1245.95025,390.331277 C1241.72794,397.373476 1247.02181,407.205484 1251.24412,414.57855 C1253.76322,418.973814 1259.38044,424.914377 1256.08681,428.873499 C1252.98117,432.603271 1247.33012,430.749665 1244.20568,430.174408 C1236.33632,428.719346 1228.36543,427.561312 1222.05641,436.043533 C1220.01481,438.795744 1216.93925,441.040374 1217.2814,444.191128 C1217.69498,447.91714 1232.73814,457.031016 1235.44523,459.038776 C1250.12745,469.878424 1272.19025,472.288487 1288.17337,465.325245 C1293.21533,463.125733 1297.9941,459.636592 1302.64879,456.952059 C1305.78075,455.132292 1308.50288,450.443759 1312.09353,449.970018 C1313.30797,449.815864 1317.69195,451.17317 1318.86878,451.488997 C1329.4678,454.354003 1339.08926,462.926461 1349.31981,468.72039 C1353.82035,471.265808 1357.15158,475.905463 1361.89651,477.142454 C1365.40821,478.059857 1371.1495,476.924383 1374.41305,472.566716 C1373.98818,470.47624 1374.0333,467.927061 1373.2099,465.772667 C1370.79231,459.43356 1361.88523,446.819264 1355.0423,443.961778 C1349.19573,441.514115 1343.39804,441.826183 1337.62667,440.13801 C1335.89338,439.63419 1332.9043,439.480036 1332.00946,436.671428 C1335.66779,433.63347 1340.72103,426.899578 1344.41696,424.763983 C1346.5112,423.557072 1368.41609,409.957694 1370.5216,405.863218 C1371.1307,404.069769 1370.26593,401.366437 1370.72463,399.377476 C1372.72487,390.805018 1378.34209,382.773979 1369.99522,373.70522 L1369.99522,373.70522 Z" id="Fill-3" fill="#FFFFFF"></path>
            <path d="M452.994128,704.274992 L493.803539,704.274992 L493.803539,790.240203 C493.803539,821.830462 469.157723,832.542275 425.009564,832.542275 C379.684572,832.542275 355.333528,822.518515 355.333528,790.947055 L355.333528,704.274992 L396.141436,704.274992 L396.141436,783.487512 C396.141436,802.655227 408.635417,805.482635 421.907688,806.11053 C436.947088,806.824901 452.994128,802.892098 452.994128,783.487512 L452.994128,704.274992" id="Fill-4" fill="#00569F"></path>
            <path d="M875.582468,743.463909 L843.259038,743.463909 C824.681619,710.719375 778.115877,739.561185 809.709896,749.897012 C814.007405,751.303196 820.831533,751.746858 827.490227,753.288397 C862.00189,761.266799 879.274641,774.813538 879.274641,793.973734 C878.29708,822.503476 857.091526,837.858703 815.657979,837.475198 C767.99812,837.024016 758.72633,816.957697 754.312266,790.281561 L792.82441,790.281561 C794.305791,794.951295 801.746534,803.741824 805.307112,805.918777 C808.664658,807.971655 812.943367,808.701066 817.89885,808.701066 C830.708659,808.701066 837.115443,805.681907 837.115443,799.602229 C837.115443,794.454995 828.501627,789.988293 811.236395,786.247242 C776.213393,778.313959 758.73385,764.274679 758.73385,744.155721 C759.711411,717.479585 779.179914,703.707255 817.13936,702.748493 C851.658543,703.225994 871.130806,716.787773 875.582468,743.463909" id="Fill-5" fill="#00569F"></path>
            <polyline id="Fill-6" fill="#00569F" points="895.58863 737.305275 895.58863 704.274992 1031.1425 704.274992 1031.1425 737.305275 981.448565 737.305275 981.448565 840.426681 945.290087 840.426681 945.290087 737.305275 895.58863 737.305275"></polyline>
            <path d="M1110.54677,704.553221 C1142.53558,704.553221 1169.83585,724.845132 1179.67162,752.927451 L1140.27591,752.927451 C1133.31643,744.354993 1122.57077,738.843053 1110.54677,738.843053 C1089.63825,738.843053 1072.57981,755.506708 1072.57981,775.941493 C1072.57981,796.383798 1089.63825,813.047453 1110.54677,813.047453 C1123.42426,813.047453 1134.84293,806.719625 1141.70841,797.08313 L1180.30327,797.08313 C1171.05028,826.135491 1143.24619,847.337285 1110.54677,847.337285 C1070.31638,847.337285 1037.50793,815.265764 1037.50793,775.941493 C1037.50793,736.628502 1070.31638,704.553221 1110.54677,704.553221" id="Fill-7" fill="#00569F"></path>
            <path d="M822.613702,1357.20678 L793.031202,1400.4992 C793.031202,1400.4992 808.548103,1392.56103 819.368951,1396.88786 C830.189799,1401.22184 836.68682,1411.68325 833.081124,1419.61578 C829.467908,1427.55395 819.008005,1434.77099 808.187157,1431.52699 C797.362549,1428.2766 793.392147,1423.22712 797.362549,1422.50447 C801.329191,1421.78221 800.6073,1424.6724 803.85581,1426.83281 C807.10056,1428.99924 813.958527,1416.73273 810.352831,1413.12703 C806.739615,1409.5157 798.08444,1400.4992 787.977963,1408.07191 C777.879006,1415.64876 782.176515,1430.0832 784.015081,1437.29873 C785.849888,1444.51012 812.856891,1460.74929 834.524906,1444.87145 C856.185402,1428.99924 855.444712,1416.73273 853.279038,1406.63264 C851.117124,1396.52805 839.574385,1385.70494 832.720178,1386.42759 C825.862212,1387.15023 822.974647,1383.53889 822.974647,1383.53889 L830.550745,1372.35484 L857.975091,1373.43843 L855.805657,1385.34362 L867.713102,1387.87287 C867.713102,1387.87287 871.318798,1374.16108 878.173005,1370.55538 C885.027212,1366.94404 889.354799,1358.28887 889.354799,1358.28887 C889.354799,1358.28887 821.89557,1357.5666 822.613702,1357.20678" id="Fill-8" fill="#FFFFFF"></path>
            <path d="M719.168949,1388.48234 C718.270344,1389.41065 717.251425,1390.3446 716.11219,1391.05408 C712.476416,1393.32616 708.622569,1383.24638 711.11911,1375.60636 C714.021714,1366.71356 738.028356,1359.25402 744.051636,1374.9262 C746.882803,1382.28761 746.100754,1388.10185 744.051636,1391.27892 C742.010037,1394.46013 742.002518,1393.09718 737.231268,1387.86535 C730.801924,1380.82315 723.88756,1383.55656 719.168949,1388.48234 Z M724.519215,1409.45366 C724.665849,1409.45366 722.274585,1412.87888 718.759125,1416.83838 C713.521654,1422.74097 684.176025,1441.27741 678.186584,1434.45967 C677.163904,1433.29524 678.634006,1428.4206 677.724122,1426.48916 C673.054388,1416.57707 657.537487,1424.3171 660.913833,1434.44087 C668.098906,1455.99233 709.423417,1446.67053 723.240866,1437.94655 C747.619733,1422.54884 771.648935,1393.56416 758.136034,1367.19971 C754.293467,1359.69618 736.404101,1343.27015 710.885999,1355.61148 C696.493293,1362.57322 684.510651,1395.26323 707.032153,1406.49579 C713.397579,1411.02979 724.519215,1409.45366 724.519215,1409.45366 L724.519215,1409.45366 Z" id="Fill-9" fill="#FFFFFF"></path>
            <path d="M584.148975,1447.67366 L611.697396,1447.38002 L675.494531,1353.71275 C675.494531,1353.71275 673.464212,1349.93937 665.925713,1351.10417 C658.390973,1352.26145 651.138223,1356.32247 643.595963,1355.74232 C636.057464,1355.16368 631.996826,1353.99888 630.259776,1352.54795 C628.522725,1351.10417 626.778154,1354.2914 628.522725,1359.50969 C630.259776,1364.73363 633.15862,1368.501 636.346973,1369.07964 C639.535325,1369.65978 640.114342,1370.53056 640.114342,1370.53056 L584.148975,1447.67366" id="Fill-10" fill="#FFFFFF"></path>
            <path d="M933.93158,1412.6672 C934.830185,1411.73326 935.849104,1410.80495 936.988339,1410.09584 C940.620354,1407.82226 944.48172,1417.90317 941.981419,1425.54319 C939.082575,1434.42884 914.267565,1442.69186 908.248045,1427.0193 C905.420638,1419.65977 906.206447,1413.84968 908.248045,1410.66847 C910.289644,1407.48575 910.297163,1408.85622 915.064653,1414.08015 C921.497757,1421.12273 929.212969,1417.59185 933.93158,1412.6672 Z M924.580834,1393.56416 C924.43044,1393.56416 926.821704,1390.13179 930.340924,1386.17229 C935.578395,1380.26933 964.927784,1361.73327 970.920985,1368.55664 C971.428565,1369.13679 974.861308,1374.94538 968.078538,1374.70325 C963.920144,1374.55924 961.803349,1381.67062 962.145495,1382.67977 C967.003221,1397.01833 990.130058,1390.84842 986.291252,1370.22639 C982.147897,1347.89664 947.959581,1354.21056 930.122852,1364.59714 C905.202567,1379.09889 877.451114,1409.44802 890.964015,1435.81096 C894.810341,1443.31449 911.853741,1457.82827 938.21781,1447.39882 C955.806388,1440.44309 967.52584,1406.9511 945.004339,1395.71705 C938.638913,1391.18492 924.580834,1393.56416 924.580834,1393.56416 L924.580834,1393.56416 Z" id="Fill-11" fill="#FFFFFF"></path>
            <path d="M698.944715,669.342226 C819.835172,555.866193 930.837224,485.869066 1011.33561,474.566957 C1096.03751,462.667031 1111.31002,518.327851 1086.40854,604.838239 C1080.85148,624.175148 1072.16247,644.92576 1060.98819,666.544898 L1098.04903,666.544898 C1106.98244,644.124912 1113.46066,622.250105 1117.17163,601.221264 C1133.30891,509.729074 1099.26722,450.887421 1001.90967,454.18105 C910.39116,457.279166 794.978804,520.282973 670.027709,637.65421 C665.782838,641.647171 661.609405,645.67397 657.499889,649.727089 C672.629525,653.637333 686.646246,660.374984 698.944715,669.342226 Z M523.660508,834.192849 C499.499712,883.679995 484.979172,930.997707 480.471111,970.949873 C470.951171,1055.42618 507.143487,1100.64214 595.184135,1093.64882 C677.923394,1087.08036 794.012523,1032.4723 904.792743,928.707958 C927.942139,907.017384 949.753029,884.732753 969.958463,862.151094 L914.587152,862.151094 C812.176358,969.321858 687.962194,1060.26511 605.023662,1073.28171 C474.511749,1093.78041 482.456312,1002.2619 515.426437,925.500806 C524.765904,903.757594 535.045334,882.30389 546.753507,860.929143 C537.835143,853.183852 530.048493,844.179011 523.660508,834.192849 L523.660508,834.192849 Z" id="Fill-12" fill="#00569F"></path>
            <path d="M835.028726,999.393138 C894.535872,1041.90576 955.671033,1071.09724 1002.34957,1079.94041 C1109.26091,1105.59762 1104.46334,1000.03983 1076.66677,925.500806 C1068.60189,903.86287 1059.03307,882.890426 1047.80992,862.151094 L1082.76148,862.151094 C1098.03775,901.261053 1107.26443,938.389572 1110.85508,970.949873 C1120.17199,1055.42618 1075.896,1107.30083 989.787912,1100.30751 C936.683791,1095.99872 869.739661,1069.90913 800.178677,1022.30566 C811.740215,1015.01532 823.365672,1007.37906 835.028726,999.393138" id="Fill-13" fill="#E95328"></path>
            <path d="M894.479474,666.544898 C865.303038,636.714248 836.250677,609.695966 807.837491,585.952513 C819.14336,577.161984 830.347713,568.72488 841.409192,560.648722 C871.157125,583.967312 901.641989,610.624649 932.547956,640.312424 C941.515198,648.918721 950.113975,657.671652 958.366846,666.544898 L894.479474,666.544898" id="Fill-14" fill="#E95328"></path>
            <polyline id="Fill-15" fill="#00569F" points="672.836317 868.366126 672.911514 868.324768 672.836317 868.366126"></polyline>
            <path d="M680.002591,864.452122 C713.017834,896.384528 747.96188,927.636401 781.999802,957.418173 C784.466263,959.580087 786.947764,961.715682 789.436785,963.824957 C778.0294,972.468853 766.659614,980.819479 755.338706,988.850519 C733.572934,971.235622 711.784603,951.552807 690.30834,929.813354 C673.422854,912.724836 657.375814,895.519763 642.231138,878.265811 C642.246177,878.265811 642.257457,878.265811 642.268736,878.258291 C636.493607,879.217053 630.571843,879.717113 624.529764,879.717113 C564.575196,879.717113 515.678347,830.816504 515.678347,770.865696 C515.678347,751.408472 520.833101,733.116802 529.837942,717.280313 C510.350639,679.377266 495.506752,643.948199 488.141205,601.221264 C472.349835,509.729074 510.07617,446.450798 605.301891,449.744427 C660.368654,451.654431 725.289984,478.924623 795.557821,526.956706 C784.736973,534.529044 773.825888,542.436009 762.824567,550.718958 C698.478494,503.863708 639.1819,476.371685 591.646116,474.566957 C535.40252,472.420082 497.146046,534.88999 512.899818,623.457017 C517.287563,648.132912 527.63091,673.639735 542.399601,699.56014 L542.399601,699.552621 C549.67867,712.430107 557.307406,724.243556 565.24069,735.150881 C547.851383,767.801418 555.544036,810.554672 586.555279,833.955979 C612.208736,853.319206 648.502568,846.619153 678.171544,815.555273 L657.251739,799.951895 C622.62352,832.624992 582.637515,815.87862 584.100097,773.125366 L690.609128,773.125366 C690.665526,772.373396 690.714404,771.621426 690.744483,770.865696 C692.594329,729.800614 672.313698,696.30411 631.248616,696.30411 C610.396488,696.30411 590.503122,704.353949 576.930063,718.825612 C574.121455,721.814693 571.602356,724.984246 569.376525,728.285394 L548.768787,692.833769 C568.391444,673.782609 595.127737,662.014278 624.529764,662.014278 C684.480572,662.014278 733.377422,710.911128 733.377422,770.865696 C733.377422,810.580991 711.916198,845.44232 680.002591,864.452122" id="Fill-16" fill="#E95328"></path>
            <path d="M631.455408,718.419548 C648.976309,718.419548 663.196062,733.282235 664.057067,751.502468 C664.019469,751.739339 663.98187,751.983729 663.940512,752.2206 L588.826229,752.2206 C588.852547,751.983729 588.882626,751.739339 588.920225,751.502468 C591.653636,733.282235 610.764953,718.419548 631.455408,718.419548" id="Fill-17" fill="#E95328"></path>
        </g>
    </g>
</svg>